<svg xmlns="http://www.w3.org/2000/svg" xmlns:xlink="http://www.w3.org/1999/xlink" width="1500" zoomAndPan="magnify" viewBox="0 0 375 374.999991" height="1500" preserveAspectRatio="xMidYMid meet" version="1.0"><defs><g/><clipPath id="id1"><path d="M 0 149 L 147 149 L 147 251.324219 L 0 251.324219 Z M 0 149 " clip-rule="nonzero"/></clipPath><clipPath id="id2"><path d="M 103 108.074219 L 140 108.074219 L 140 144 L 103 144 Z M 103 108.074219 " clip-rule="nonzero"/></clipPath><clipPath id="id3"><path d="M 7.164062 112.796875 L 49.164062 112.796875 L 49.164062 154.796875 L 7.164062 154.796875 Z M 7.164062 112.796875 " clip-rule="nonzero"/></clipPath></defs><g clip-path="url(#id1)"><path fill="#004aad" d="M 125.117188 208.132812 C 125.75 205.117188 126.132812 202.007812 126.242188 198.832031 C 126.492188 198.636719 126.742188 198.433594 126.988281 198.238281 C 149.578125 180.035156 156.109375 158.894531 130.4375 149.277344 C 139.054688 159.066406 135.890625 170.5 125.179688 181.472656 C 124.878906 181.777344 124.578125 182.082031 124.269531 182.386719 C 105.351562 200.992188 64.96875 218.082031 24.035156 223.292969 C 23.761719 223.328125 23.488281 223.363281 23.207031 223.398438 C 15.441406 224.355469 7.652344 224.886719 0 224.910156 C 8.949219 227.582031 18.128906 229.074219 27.308594 229.574219 C 27.550781 229.5625 27.792969 229.554688 28.039062 229.542969 C 28.125 229.539062 28.214844 229.539062 28.300781 229.535156 C 34.597656 237.976562 43.289062 244.53125 53.363281 248.179688 C 49.023438 243.164062 45.367188 236.425781 42.6875 228.511719 C 44.652344 228.316406 46.617188 228.101562 48.578125 227.863281 C 52.816406 240.046875 59.488281 248.726562 67.230469 251.210938 C 67.765625 251.253906 68.296875 251.292969 68.835938 251.316406 L 68.835938 224.699219 C 70.816406 224.320312 72.796875 223.929688 74.78125 223.511719 L 74.78125 251.316406 C 75.316406 251.289062 75.851562 251.253906 76.386719 251.210938 C 85.949219 248.140625 93.886719 235.625 97.601562 218.734375 C 93.027344 219.90625 88.203125 220.894531 83.132812 221.667969 C 82.859375 221.714844 82.578125 221.753906 82.300781 221.792969 C 90.433594 219.101562 98.136719 215.84375 105.203125 212.210938 L 124.097656 212.210938 C 124.488281 210.875 124.828125 209.515625 125.117188 208.140625 Z M 125.117188 208.132812 " fill-opacity="1" fill-rule="evenodd"/></g><path fill="#004aad" d="M 74.992188 152.125 L 68.945312 160.546875 C 78.414062 160.707031 85.386719 162.304688 74.910156 173.976562 C 93.613281 157.476562 89.492188 152.242188 74.996094 152.125 Z M 74.992188 152.125 " fill-opacity="1" fill-rule="evenodd"/><path fill="#004aad" d="M 66.753906 123.867188 C 66.753906 127.84375 69.972656 131.0625 73.945312 131.0625 C 77.910156 131.0625 81.132812 127.84375 81.132812 123.867188 C 81.132812 119.894531 77.910156 116.675781 73.945312 116.675781 C 69.976562 116.675781 66.753906 119.894531 66.753906 123.867188 Z M 66.753906 123.867188 " fill-opacity="1" fill-rule="evenodd"/><path fill="#004aad" d="M 61.585938 140.433594 C 56.753906 160.230469 47.195312 177.523438 34.414062 193.105469 C 52.347656 180.621094 67.070312 164.320312 77.527344 142.945312 C 88.878906 144.53125 100.644531 144.40625 110.835938 133.789062 C 86.996094 150.171875 51.761719 116 40.371094 146.601562 C 45.953125 140.140625 53.34375 139.507812 61.582031 140.441406 Z M 61.585938 140.433594 " fill-opacity="1" fill-rule="evenodd"/><g clip-path="url(#id2)"><path fill="#004aad" d="M 121.945312 108.078125 L 125.203125 119.84375 L 136.421875 115.058594 L 129.265625 124.945312 L 139.996094 130.742188 L 127.8125 131.304688 L 129.980469 143.320312 L 121.945312 134.136719 L 113.910156 143.320312 L 116.074219 131.304688 L 103.890625 130.742188 L 114.628906 124.945312 L 107.46875 115.058594 L 118.6875 119.84375 Z M 121.945312 108.078125 " fill-opacity="1" fill-rule="evenodd"/></g><path fill="#000000" d="M 44.335938 217.09375 L 44.335938 199.960938 L 28.988281 199.960938 L 28.988281 219.976562 C 29.664062 219.871094 30.34375 219.765625 31.019531 219.65625 C 35.457031 218.941406 39.902344 218.082031 44.335938 217.09375 Z M 99.269531 167.46875 L 99.269531 197.003906 C 104.609375 194.097656 109.855469 190.839844 114.617188 187.234375 L 114.617188 167.46875 Z M 75.839844 174.835938 L 75.839844 207.671875 C 78.773438 206.558594 81.671875 205.378906 84.523438 204.148438 C 86.710938 203.207031 88.9375 202.195312 91.1875 201.125 L 91.1875 174.839844 L 75.839844 174.839844 Z M 52.417969 188.515625 L 52.417969 215.140625 C 57.585938 213.796875 62.714844 212.269531 67.765625 210.566406 L 67.765625 188.515625 Z M 52.417969 188.515625 " fill-opacity="1" fill-rule="evenodd"/><path fill="#004aad" d="M 103.679688 218.335938 C 101.105469 230.679688 96.34375 241.125 90.246094 248.179688 L 90.472656 248.097656 C 104.550781 242.925781 115.894531 232.085938 121.738281 218.335938 Z M 103.679688 218.335938 " fill-opacity="1" fill-rule="evenodd"/><g fill="#000000" fill-opacity="1"><g transform="translate(125.33213, 222.063309)"><g><path d="M 13.890625 0.1875 C 11.972656 0.1875 10.234375 -0.1875 8.671875 -0.9375 C 7.117188 -1.6875 5.78125 -2.679688 4.65625 -3.921875 C 3.539062 -5.160156 2.675781 -6.578125 2.0625 -8.171875 C 1.445312 -9.773438 1.140625 -11.410156 1.140625 -13.078125 C 1.140625 -14.828125 1.460938 -16.5 2.109375 -18.09375 C 2.765625 -19.695312 3.664062 -21.109375 4.8125 -22.328125 C 5.957031 -23.554688 7.3125 -24.535156 8.875 -25.265625 C 10.445312 -25.992188 12.15625 -26.359375 14 -26.359375 C 15.894531 -26.359375 17.625 -25.96875 19.1875 -25.1875 C 20.75 -24.414062 22.082031 -23.398438 23.1875 -22.140625 C 24.289062 -20.890625 25.148438 -19.46875 25.765625 -17.875 C 26.378906 -16.28125 26.6875 -14.660156 26.6875 -13.015625 C 26.6875 -11.265625 26.363281 -9.597656 25.71875 -8.015625 C 25.082031 -6.429688 24.195312 -5.03125 23.0625 -3.8125 C 21.9375 -2.59375 20.585938 -1.617188 19.015625 -0.890625 C 17.441406 -0.171875 15.734375 0.1875 13.890625 0.1875 Z M 6.296875 -13.078125 C 6.296875 -11.953125 6.46875 -10.859375 6.8125 -9.796875 C 7.15625 -8.742188 7.648438 -7.8125 8.296875 -7 C 8.953125 -6.1875 9.753906 -5.535156 10.703125 -5.046875 C 11.648438 -4.554688 12.726562 -4.3125 13.9375 -4.3125 C 15.164062 -4.3125 16.25 -4.5625 17.1875 -5.0625 C 18.132812 -5.570312 18.929688 -6.242188 19.578125 -7.078125 C 20.234375 -7.910156 20.726562 -8.847656 21.0625 -9.890625 C 21.394531 -10.941406 21.5625 -12.003906 21.5625 -13.078125 C 21.5625 -14.210938 21.382812 -15.304688 21.03125 -16.359375 C 20.675781 -17.421875 20.171875 -18.359375 19.515625 -19.171875 C 18.867188 -19.984375 18.070312 -20.628906 17.125 -21.109375 C 16.175781 -21.585938 15.113281 -21.828125 13.9375 -21.828125 C 12.707031 -21.828125 11.613281 -21.570312 10.65625 -21.0625 C 9.695312 -20.5625 8.894531 -19.898438 8.25 -19.078125 C 7.613281 -18.253906 7.128906 -17.316406 6.796875 -16.265625 C 6.460938 -15.222656 6.296875 -14.160156 6.296875 -13.078125 Z M 6.296875 -13.078125 "/></g></g></g><g fill="#000000" fill-opacity="1"><g transform="translate(153.194899, 222.063309)"><g><path d="M 24.0625 0 L 24.0625 -17.328125 L 17.328125 -4.421875 L 14.5625 -4.421875 L 7.8125 -17.328125 L 7.8125 0 L 2.734375 0 L 2.734375 -26.171875 L 8.1875 -26.171875 L 15.921875 -11.28125 L 23.734375 -26.171875 L 29.15625 -26.171875 L 29.15625 0 Z M 24.0625 0 "/></g></g></g><g fill="#000000" fill-opacity="1"><g transform="translate(185.074921, 222.063309)"><g><path d="M 13.890625 0.1875 C 11.972656 0.1875 10.234375 -0.1875 8.671875 -0.9375 C 7.117188 -1.6875 5.78125 -2.679688 4.65625 -3.921875 C 3.539062 -5.160156 2.675781 -6.578125 2.0625 -8.171875 C 1.445312 -9.773438 1.140625 -11.410156 1.140625 -13.078125 C 1.140625 -14.828125 1.460938 -16.5 2.109375 -18.09375 C 2.765625 -19.695312 3.664062 -21.109375 4.8125 -22.328125 C 5.957031 -23.554688 7.3125 -24.535156 8.875 -25.265625 C 10.445312 -25.992188 12.15625 -26.359375 14 -26.359375 C 15.894531 -26.359375 17.625 -25.96875 19.1875 -25.1875 C 20.75 -24.414062 22.082031 -23.398438 23.1875 -22.140625 C 24.289062 -20.890625 25.148438 -19.46875 25.765625 -17.875 C 26.378906 -16.28125 26.6875 -14.660156 26.6875 -13.015625 C 26.6875 -11.265625 26.363281 -9.597656 25.71875 -8.015625 C 25.082031 -6.429688 24.195312 -5.03125 23.0625 -3.8125 C 21.9375 -2.59375 20.585938 -1.617188 19.015625 -0.890625 C 17.441406 -0.171875 15.734375 0.1875 13.890625 0.1875 Z M 6.296875 -13.078125 C 6.296875 -11.953125 6.46875 -10.859375 6.8125 -9.796875 C 7.15625 -8.742188 7.648438 -7.8125 8.296875 -7 C 8.953125 -6.1875 9.753906 -5.535156 10.703125 -5.046875 C 11.648438 -4.554688 12.726562 -4.3125 13.9375 -4.3125 C 15.164062 -4.3125 16.25 -4.5625 17.1875 -5.0625 C 18.132812 -5.570312 18.929688 -6.242188 19.578125 -7.078125 C 20.234375 -7.910156 20.726562 -8.847656 21.0625 -9.890625 C 21.394531 -10.941406 21.5625 -12.003906 21.5625 -13.078125 C 21.5625 -14.210938 21.382812 -15.304688 21.03125 -16.359375 C 20.675781 -17.421875 20.171875 -18.359375 19.515625 -19.171875 C 18.867188 -19.984375 18.070312 -20.628906 17.125 -21.109375 C 16.175781 -21.585938 15.113281 -21.828125 13.9375 -21.828125 C 12.707031 -21.828125 11.613281 -21.570312 10.65625 -21.0625 C 9.695312 -20.5625 8.894531 -19.898438 8.25 -19.078125 C 7.613281 -18.253906 7.128906 -17.316406 6.796875 -16.265625 C 6.460938 -15.222656 6.296875 -14.160156 6.296875 -13.078125 Z M 6.296875 -13.078125 "/></g></g></g><g fill="#000000" fill-opacity="1"><g transform="translate(212.937689, 222.063309)"><g><path d="M 22.296875 -21.703125 L 13.9375 -21.703125 L 13.9375 0 L 8.890625 0 L 8.890625 -21.703125 L 0.515625 -21.703125 L 0.515625 -26.171875 L 22.296875 -26.171875 Z M 22.296875 -21.703125 "/></g></g></g><g fill="#000000" fill-opacity="1"><g transform="translate(235.751256, 222.063309)"><g><path d="M 2.734375 0 L 2.734375 -26.171875 L 7.8125 -26.171875 L 7.8125 0 Z M 2.734375 0 "/></g></g></g><g fill="#000000" fill-opacity="1"><g transform="translate(246.291939, 222.063309)"><g><path d="M 1.140625 -13.265625 C 1.140625 -14.867188 1.425781 -16.445312 2 -18 C 2.582031 -19.5625 3.425781 -20.957031 4.53125 -22.1875 C 5.632812 -23.414062 6.984375 -24.410156 8.578125 -25.171875 C 10.179688 -25.929688 12.003906 -26.3125 14.046875 -26.3125 C 16.453125 -26.3125 18.53125 -25.78125 20.28125 -24.71875 C 22.039062 -23.664062 23.351562 -22.296875 24.21875 -20.609375 L 20.3125 -17.90625 C 19.96875 -18.644531 19.546875 -19.265625 19.046875 -19.765625 C 18.554688 -20.273438 18.03125 -20.675781 17.46875 -20.96875 C 16.90625 -21.269531 16.316406 -21.488281 15.703125 -21.625 C 15.085938 -21.757812 14.484375 -21.828125 13.890625 -21.828125 C 12.617188 -21.828125 11.507812 -21.566406 10.5625 -21.046875 C 9.613281 -20.523438 8.828125 -19.851562 8.203125 -19.03125 C 7.578125 -18.207031 7.101562 -17.273438 6.78125 -16.234375 C 6.457031 -15.191406 6.296875 -14.15625 6.296875 -13.125 C 6.296875 -11.96875 6.476562 -10.851562 6.84375 -9.78125 C 7.21875 -8.71875 7.742188 -7.78125 8.421875 -6.96875 C 9.097656 -6.15625 9.910156 -5.503906 10.859375 -5.015625 C 11.804688 -4.523438 12.84375 -4.28125 13.96875 -4.28125 C 14.5625 -4.28125 15.175781 -4.351562 15.8125 -4.5 C 16.445312 -4.644531 17.050781 -4.875 17.625 -5.1875 C 18.207031 -5.507812 18.742188 -5.921875 19.234375 -6.421875 C 19.734375 -6.929688 20.128906 -7.539062 20.421875 -8.25 L 24.578125 -5.859375 C 24.160156 -4.878906 23.566406 -4.015625 22.796875 -3.265625 C 22.023438 -2.515625 21.148438 -1.878906 20.171875 -1.359375 C 19.203125 -0.847656 18.164062 -0.457031 17.0625 -0.1875 C 15.957031 0.0820312 14.878906 0.21875 13.828125 0.21875 C 11.953125 0.21875 10.238281 -0.171875 8.6875 -0.953125 C 7.144531 -1.742188 5.8125 -2.769531 4.6875 -4.03125 C 3.570312 -5.300781 2.703125 -6.738281 2.078125 -8.34375 C 1.453125 -9.957031 1.140625 -11.597656 1.140625 -13.265625 Z M 1.140625 -13.265625 "/></g></g></g><g fill="#000000" fill-opacity="1"><g transform="translate(271.57482, 222.063309)"><g/></g></g><g fill="#000000" fill-opacity="1"><g transform="translate(280.420141, 222.063309)"><g><path d="M 1.40625 -5.34375 C 1.75 -5.09375 2.320312 -4.820312 3.125 -4.53125 C 3.9375 -4.238281 4.875 -4.09375 5.9375 -4.09375 C 6.96875 -4.09375 7.789062 -4.269531 8.40625 -4.625 C 9.019531 -4.976562 9.484375 -5.523438 9.796875 -6.265625 C 10.117188 -7.003906 10.328125 -7.921875 10.421875 -9.015625 C 10.523438 -10.109375 10.578125 -11.390625 10.578125 -12.859375 L 10.578125 -26.171875 L 15.671875 -26.171875 L 15.671875 -12.859375 C 15.671875 -10.867188 15.5625 -9.054688 15.34375 -7.421875 C 15.132812 -5.785156 14.691406 -4.390625 14.015625 -3.234375 C 13.347656 -2.085938 12.375 -1.191406 11.09375 -0.546875 C 9.8125 0.0859375 8.09375 0.40625 5.9375 0.40625 C 3.71875 0.40625 1.828125 -0.132812 0.265625 -1.21875 Z M 1.40625 -5.34375 "/></g></g></g><g fill="#000000" fill-opacity="1"><g transform="translate(298.516201, 222.063309)"><g><path d="M 13.890625 0.1875 C 11.972656 0.1875 10.234375 -0.1875 8.671875 -0.9375 C 7.117188 -1.6875 5.78125 -2.679688 4.65625 -3.921875 C 3.539062 -5.160156 2.675781 -6.578125 2.0625 -8.171875 C 1.445312 -9.773438 1.140625 -11.410156 1.140625 -13.078125 C 1.140625 -14.828125 1.460938 -16.5 2.109375 -18.09375 C 2.765625 -19.695312 3.664062 -21.109375 4.8125 -22.328125 C 5.957031 -23.554688 7.3125 -24.535156 8.875 -25.265625 C 10.445312 -25.992188 12.15625 -26.359375 14 -26.359375 C 15.894531 -26.359375 17.625 -25.96875 19.1875 -25.1875 C 20.75 -24.414062 22.082031 -23.398438 23.1875 -22.140625 C 24.289062 -20.890625 25.148438 -19.46875 25.765625 -17.875 C 26.378906 -16.28125 26.6875 -14.660156 26.6875 -13.015625 C 26.6875 -11.265625 26.363281 -9.597656 25.71875 -8.015625 C 25.082031 -6.429688 24.195312 -5.03125 23.0625 -3.8125 C 21.9375 -2.59375 20.585938 -1.617188 19.015625 -0.890625 C 17.441406 -0.171875 15.734375 0.1875 13.890625 0.1875 Z M 6.296875 -13.078125 C 6.296875 -11.953125 6.46875 -10.859375 6.8125 -9.796875 C 7.15625 -8.742188 7.648438 -7.8125 8.296875 -7 C 8.953125 -6.1875 9.753906 -5.535156 10.703125 -5.046875 C 11.648438 -4.554688 12.726562 -4.3125 13.9375 -4.3125 C 15.164062 -4.3125 16.25 -4.5625 17.1875 -5.0625 C 18.132812 -5.570312 18.929688 -6.242188 19.578125 -7.078125 C 20.234375 -7.910156 20.726562 -8.847656 21.0625 -9.890625 C 21.394531 -10.941406 21.5625 -12.003906 21.5625 -13.078125 C 21.5625 -14.210938 21.382812 -15.304688 21.03125 -16.359375 C 20.675781 -17.421875 20.171875 -18.359375 19.515625 -19.171875 C 18.867188 -19.984375 18.070312 -20.628906 17.125 -21.109375 C 16.175781 -21.585938 15.113281 -21.828125 13.9375 -21.828125 C 12.707031 -21.828125 11.613281 -21.570312 10.65625 -21.0625 C 9.695312 -20.5625 8.894531 -19.898438 8.25 -19.078125 C 7.613281 -18.253906 7.128906 -17.316406 6.796875 -16.265625 C 6.460938 -15.222656 6.296875 -14.160156 6.296875 -13.078125 Z M 6.296875 -13.078125 "/></g></g></g><g fill="#000000" fill-opacity="1"><g transform="translate(326.378969, 222.063309)"><g><path d="M 23.8125 -6.75 C 23.8125 -5.644531 23.585938 -4.671875 23.140625 -3.828125 C 22.703125 -2.992188 22.09375 -2.296875 21.3125 -1.734375 C 20.539062 -1.171875 19.644531 -0.738281 18.625 -0.4375 C 17.613281 -0.144531 16.53125 0 15.375 0 L 2.734375 0 L 2.734375 -26.171875 L 16.734375 -26.171875 C 17.640625 -26.171875 18.460938 -25.972656 19.203125 -25.578125 C 19.941406 -25.179688 20.566406 -24.671875 21.078125 -24.046875 C 21.597656 -23.421875 22 -22.707031 22.28125 -21.90625 C 22.5625 -21.113281 22.703125 -20.3125 22.703125 -19.5 C 22.703125 -18.21875 22.378906 -17.019531 21.734375 -15.90625 C 21.097656 -14.789062 20.171875 -13.960938 18.953125 -13.421875 C 20.441406 -12.972656 21.625 -12.175781 22.5 -11.03125 C 23.375 -9.894531 23.8125 -8.46875 23.8125 -6.75 Z M 18.6875 -7.703125 C 18.6875 -8.171875 18.601562 -8.617188 18.4375 -9.046875 C 18.28125 -9.472656 18.066406 -9.847656 17.796875 -10.171875 C 17.523438 -10.492188 17.207031 -10.742188 16.84375 -10.921875 C 16.476562 -11.109375 16.070312 -11.203125 15.625 -11.203125 L 7.8125 -11.203125 L 7.8125 -4.3125 L 15.375 -4.3125 C 15.84375 -4.3125 16.273438 -4.394531 16.671875 -4.5625 C 17.078125 -4.738281 17.425781 -4.976562 17.71875 -5.28125 C 18.019531 -5.59375 18.253906 -5.957031 18.421875 -6.375 C 18.597656 -6.789062 18.6875 -7.234375 18.6875 -7.703125 Z M 7.8125 -21.828125 L 7.8125 -15.21875 L 14.59375 -15.21875 C 15.457031 -15.21875 16.1875 -15.507812 16.78125 -16.09375 C 17.382812 -16.6875 17.6875 -17.503906 17.6875 -18.546875 C 17.6875 -19.546875 17.410156 -20.34375 16.859375 -20.9375 C 16.304688 -21.53125 15.625 -21.828125 14.8125 -21.828125 Z M 7.8125 -21.828125 "/></g></g></g><g fill="#000000" fill-opacity="1"><g transform="translate(351.440727, 222.063309)"><g><path d="M 18.3125 -19.3125 C 18.144531 -19.488281 17.832031 -19.722656 17.375 -20.015625 C 16.925781 -20.304688 16.375 -20.59375 15.71875 -20.875 C 15.070312 -21.15625 14.363281 -21.394531 13.59375 -21.59375 C 12.832031 -21.789062 12.0625 -21.890625 11.28125 -21.890625 C 9.875 -21.890625 8.828125 -21.628906 8.140625 -21.109375 C 7.453125 -20.597656 7.109375 -19.878906 7.109375 -18.953125 C 7.109375 -18.410156 7.238281 -17.957031 7.5 -17.59375 C 7.757812 -17.238281 8.132812 -16.925781 8.625 -16.65625 C 9.113281 -16.382812 9.734375 -16.140625 10.484375 -15.921875 C 11.234375 -15.703125 12.097656 -15.46875 13.078125 -15.21875 C 14.359375 -14.875 15.519531 -14.503906 16.5625 -14.109375 C 17.613281 -13.722656 18.5 -13.234375 19.21875 -12.640625 C 19.945312 -12.054688 20.503906 -11.347656 20.890625 -10.515625 C 21.285156 -9.691406 21.484375 -8.679688 21.484375 -7.484375 C 21.484375 -6.078125 21.21875 -4.875 20.6875 -3.875 C 20.164062 -2.882812 19.457031 -2.082031 18.5625 -1.46875 C 17.664062 -0.851562 16.632812 -0.40625 15.46875 -0.125 C 14.300781 0.15625 13.078125 0.296875 11.796875 0.296875 C 9.828125 0.296875 7.882812 0.00390625 5.96875 -0.578125 C 4.050781 -1.171875 2.332031 -2.007812 0.8125 -3.09375 L 3.0625 -7.484375 C 3.28125 -7.265625 3.675781 -6.972656 4.25 -6.609375 C 4.832031 -6.253906 5.515625 -5.898438 6.296875 -5.546875 C 7.085938 -5.191406 7.960938 -4.890625 8.921875 -4.640625 C 9.878906 -4.398438 10.863281 -4.28125 11.875 -4.28125 C 14.675781 -4.28125 16.078125 -5.175781 16.078125 -6.96875 C 16.078125 -7.53125 15.914062 -8.007812 15.59375 -8.40625 C 15.269531 -8.800781 14.8125 -9.144531 14.21875 -9.4375 C 13.632812 -9.726562 12.925781 -9.992188 12.09375 -10.234375 C 11.257812 -10.484375 10.320312 -10.757812 9.28125 -11.0625 C 8.03125 -11.40625 6.941406 -11.78125 6.015625 -12.1875 C 5.097656 -12.59375 4.332031 -13.070312 3.71875 -13.625 C 3.101562 -14.175781 2.640625 -14.8125 2.328125 -15.53125 C 2.023438 -16.257812 1.875 -17.128906 1.875 -18.140625 C 1.875 -19.460938 2.117188 -20.640625 2.609375 -21.671875 C 3.109375 -22.703125 3.789062 -23.5625 4.65625 -24.25 C 5.53125 -24.9375 6.546875 -25.457031 7.703125 -25.8125 C 8.859375 -26.175781 10.097656 -26.359375 11.421875 -26.359375 C 13.265625 -26.359375 14.957031 -26.066406 16.5 -25.484375 C 18.050781 -24.910156 19.40625 -24.226562 20.5625 -23.4375 Z M 18.3125 -19.3125 "/></g></g></g><g clip-path="url(#id3)"><path fill="#004aad" d="M 7.164062 133.792969 C 25.371094 136.585938 25.371094 136.585938 28.164062 154.792969 C 30.949219 136.585938 30.949219 136.585938 49.160156 133.792969 C 30.949219 131.007812 30.949219 131.007812 28.164062 112.796875 C 25.371094 131.007812 25.371094 131.007812 7.164062 133.792969 " fill-opacity="1" fill-rule="nonzero"/></g></svg>