<svg xmlns="http://www.w3.org/2000/svg" xmlns:xlink="http://www.w3.org/1999/xlink" width="500" zoomAndPan="magnify" viewBox="0 0 375 374.999991" height="500" preserveAspectRatio="xMidYMid meet" version="1.0"><defs><g/><clipPath id="id1"><path d="M 116.175781 133 L 223.425781 133 L 223.425781 208.175781 L 116.175781 208.175781 Z M 116.175781 133 " clip-rule="nonzero"/></clipPath><clipPath id="id2"><path d="M 191 103.925781 L 219 103.925781 L 219 130 L 191 130 Z M 191 103.925781 " clip-rule="nonzero"/></clipPath><clipPath id="id3"><path d="M 125.574219 75.820312 L 158.574219 75.820312 L 158.574219 108.820312 L 125.574219 108.820312 Z M 125.574219 75.820312 " clip-rule="nonzero"/></clipPath><clipPath id="id4"><path d="M 202.539062 64.082031 L 230.289062 64.082031 L 230.289062 91.832031 L 202.539062 91.832031 Z M 202.539062 64.082031 " clip-rule="nonzero"/></clipPath><clipPath id="id5"><path d="M 98.773438 138.785156 L 116.023438 138.785156 L 116.023438 156.035156 L 98.773438 156.035156 Z M 98.773438 138.785156 " clip-rule="nonzero"/></clipPath><clipPath id="id6"><path d="M 219 132 L 242 132 L 242 155.9375 L 219 155.9375 Z M 219 132 " clip-rule="nonzero"/></clipPath><clipPath id="id7"><path d="M 178.503906 92.1875 L 227 92.1875 L 227 141 L 178.503906 141 Z M 178.503906 92.1875 " clip-rule="nonzero"/></clipPath></defs><g clip-path="url(#id1)"><path fill="#38b6ff" d="M 207.457031 176.746094 C 207.917969 174.546875 208.199219 172.285156 208.28125 169.972656 C 208.464844 169.832031 208.644531 169.683594 208.824219 169.542969 C 225.304688 156.292969 230.070312 140.910156 211.339844 133.914062 C 217.628906 141.035156 215.316406 149.355469 207.503906 157.339844 C 207.285156 157.5625 207.066406 157.785156 206.839844 158.007812 C 193.039062 171.546875 163.578125 183.980469 133.710938 187.777344 C 133.511719 187.800781 133.3125 187.828125 133.105469 187.851562 C 127.441406 188.546875 121.757812 188.933594 116.175781 188.953125 C 122.703125 190.894531 129.402344 191.980469 136.097656 192.34375 C 136.277344 192.339844 136.453125 192.332031 136.632812 192.324219 C 136.695312 192.320312 136.757812 192.320312 136.824219 192.316406 C 141.417969 198.460938 147.757812 203.230469 155.109375 205.886719 C 151.941406 202.234375 149.273438 197.332031 147.320312 191.574219 C 148.75 191.429688 150.1875 191.273438 151.617188 191.101562 C 154.707031 199.964844 159.578125 206.28125 165.226562 208.089844 C 165.617188 208.121094 166.003906 208.152344 166.394531 208.167969 L 166.394531 188.796875 C 167.839844 188.523438 169.285156 188.238281 170.734375 187.933594 L 170.734375 208.167969 C 171.125 208.148438 171.515625 208.121094 171.90625 208.089844 C 178.882812 205.855469 184.671875 196.75 187.386719 184.457031 C 184.046875 185.3125 180.527344 186.03125 176.828125 186.59375 C 176.628906 186.625 176.421875 186.65625 176.21875 186.683594 C 182.15625 184.726562 187.773438 182.351562 192.929688 179.710938 L 206.714844 179.710938 C 207 178.738281 207.246094 177.75 207.457031 176.746094 Z M 207.457031 176.746094 " fill-opacity="1" fill-rule="evenodd"/></g><path fill="#38b6ff" d="M 170.890625 135.984375 L 166.476562 142.117188 C 173.386719 142.230469 178.472656 143.394531 170.828125 151.886719 C 184.472656 139.878906 181.46875 136.070312 170.894531 135.984375 Z M 170.890625 135.984375 " fill-opacity="1" fill-rule="evenodd"/><path fill="#38b6ff" d="M 164.878906 115.421875 C 164.878906 118.316406 167.226562 120.660156 170.125 120.660156 C 173.019531 120.660156 175.367188 118.316406 175.367188 115.421875 C 175.367188 112.53125 173.019531 110.1875 170.125 110.1875 C 167.230469 110.1875 164.878906 112.53125 164.878906 115.421875 Z M 164.878906 115.421875 " fill-opacity="1" fill-rule="evenodd"/><path fill="#38b6ff" d="M 161.109375 127.480469 C 157.582031 141.882812 150.609375 154.46875 141.28125 165.808594 C 154.367188 156.722656 165.109375 144.859375 172.738281 129.304688 C 181.019531 130.457031 189.601562 130.367188 197.039062 122.640625 C 179.648438 134.5625 153.9375 109.699219 145.628906 131.964844 C 149.703125 127.265625 155.09375 126.804688 161.105469 127.480469 Z M 161.109375 127.480469 " fill-opacity="1" fill-rule="evenodd"/><g clip-path="url(#id2)"><path fill="#38b6ff" d="M 205.144531 103.933594 L 207.523438 112.496094 L 215.707031 109.011719 L 210.484375 116.207031 L 218.316406 120.425781 L 209.425781 120.832031 L 211.007812 129.578125 L 205.144531 122.894531 L 199.285156 129.578125 L 200.863281 120.832031 L 191.972656 120.425781 L 199.804688 116.207031 L 194.582031 109.011719 L 202.769531 112.496094 Z M 205.144531 103.933594 " fill-opacity="1" fill-rule="evenodd"/></g><path fill="#d9d9d9" d="M 148.523438 183.265625 L 148.523438 170.796875 L 137.324219 170.796875 L 137.324219 185.359375 C 137.820312 185.285156 138.3125 185.207031 138.804688 185.128906 C 142.042969 184.609375 145.289062 183.980469 148.523438 183.265625 Z M 188.601562 147.152344 L 188.601562 168.644531 C 192.496094 166.53125 196.324219 164.15625 199.800781 161.535156 L 199.800781 147.152344 Z M 171.507812 152.511719 L 171.507812 176.410156 C 173.648438 175.597656 175.761719 174.738281 177.84375 173.84375 C 179.4375 173.15625 181.0625 172.421875 182.707031 171.644531 L 182.707031 152.515625 L 171.507812 152.515625 Z M 154.417969 162.46875 L 154.417969 181.84375 C 158.1875 180.863281 161.929688 179.753906 165.617188 178.511719 L 165.617188 162.46875 Z M 154.417969 162.46875 " fill-opacity="1" fill-rule="evenodd"/><path fill="#38b6ff" d="M 191.816406 184.167969 C 189.9375 193.148438 186.464844 200.75 182.019531 205.886719 L 182.183594 205.824219 C 192.453125 202.0625 200.730469 194.175781 204.992188 184.167969 Z M 191.816406 184.167969 " fill-opacity="1" fill-rule="evenodd"/><g fill="#ebebeb" fill-opacity="1"><g transform="translate(65.542969, 290.230937)"><g><path d="M 14.25 0.1875 C 12.375 0.1875 10.65625 -0.195312 9.09375 -0.96875 C 7.539062 -1.738281 6.207031 -2.765625 5.09375 -4.046875 C 3.976562 -5.328125 3.113281 -6.789062 2.5 -8.4375 C 1.894531 -10.082031 1.59375 -11.765625 1.59375 -13.484375 C 1.59375 -15.285156 1.914062 -17.007812 2.5625 -18.65625 C 3.207031 -20.300781 4.097656 -21.753906 5.234375 -23.015625 C 6.378906 -24.285156 7.722656 -25.296875 9.265625 -26.046875 C 10.816406 -26.796875 12.488281 -27.171875 14.28125 -27.171875 C 16.15625 -27.171875 17.875 -26.769531 19.4375 -25.96875 C 21 -25.175781 22.328125 -24.132812 23.421875 -22.84375 C 24.523438 -21.550781 25.378906 -20.085938 25.984375 -18.453125 C 26.597656 -16.816406 26.90625 -15.148438 26.90625 -13.453125 C 26.90625 -11.648438 26.582031 -9.925781 25.9375 -8.28125 C 25.289062 -6.632812 24.398438 -5.179688 23.265625 -3.921875 C 22.140625 -2.671875 20.804688 -1.671875 19.265625 -0.921875 C 17.722656 -0.179688 16.050781 0.1875 14.25 0.1875 Z M 4.25 -13.484375 C 4.25 -12.015625 4.488281 -10.601562 4.96875 -9.25 C 5.457031 -7.894531 6.144531 -6.691406 7.03125 -5.640625 C 7.914062 -4.585938 8.96875 -3.75 10.1875 -3.125 C 11.40625 -2.507812 12.757812 -2.203125 14.25 -2.203125 C 15.769531 -2.203125 17.148438 -2.53125 18.390625 -3.1875 C 19.628906 -3.851562 20.679688 -4.71875 21.546875 -5.78125 C 22.410156 -6.84375 23.078125 -8.046875 23.546875 -9.390625 C 24.015625 -10.734375 24.25 -12.097656 24.25 -13.484375 C 24.25 -14.953125 24 -16.363281 23.5 -17.71875 C 23.007812 -19.082031 22.320312 -20.28125 21.4375 -21.3125 C 20.550781 -22.351562 19.5 -23.179688 18.28125 -23.796875 C 17.0625 -24.421875 15.71875 -24.734375 14.25 -24.734375 C 12.726562 -24.734375 11.347656 -24.410156 10.109375 -23.765625 C 8.867188 -23.117188 7.816406 -22.265625 6.953125 -21.203125 C 6.085938 -20.140625 5.421875 -18.9375 4.953125 -17.59375 C 4.484375 -16.25 4.25 -14.878906 4.25 -13.484375 Z M 4.25 -13.484375 "/></g></g></g><g fill="#ebebeb" fill-opacity="1"><g transform="translate(94.075136, 290.230937)"><g><path d="M 27.28125 0 L 27.28125 -22.15625 L 17.4375 -5.015625 L 15.890625 -5.015625 L 6.046875 -22.15625 L 6.046875 0 L 3.375 0 L 3.375 -26.984375 L 6.125 -26.984375 L 16.640625 -8.515625 L 27.25 -26.984375 L 29.9375 -26.984375 L 29.9375 0 Z M 27.28125 0 "/></g></g></g><g fill="#ebebeb" fill-opacity="1"><g transform="translate(127.394332, 290.230937)"><g><path d="M 14.25 0.1875 C 12.375 0.1875 10.65625 -0.195312 9.09375 -0.96875 C 7.539062 -1.738281 6.207031 -2.765625 5.09375 -4.046875 C 3.976562 -5.328125 3.113281 -6.789062 2.5 -8.4375 C 1.894531 -10.082031 1.59375 -11.765625 1.59375 -13.484375 C 1.59375 -15.285156 1.914062 -17.007812 2.5625 -18.65625 C 3.207031 -20.300781 4.097656 -21.753906 5.234375 -23.015625 C 6.378906 -24.285156 7.722656 -25.296875 9.265625 -26.046875 C 10.816406 -26.796875 12.488281 -27.171875 14.28125 -27.171875 C 16.15625 -27.171875 17.875 -26.769531 19.4375 -25.96875 C 21 -25.175781 22.328125 -24.132812 23.421875 -22.84375 C 24.523438 -21.550781 25.378906 -20.085938 25.984375 -18.453125 C 26.597656 -16.816406 26.90625 -15.148438 26.90625 -13.453125 C 26.90625 -11.648438 26.582031 -9.925781 25.9375 -8.28125 C 25.289062 -6.632812 24.398438 -5.179688 23.265625 -3.921875 C 22.140625 -2.671875 20.804688 -1.671875 19.265625 -0.921875 C 17.722656 -0.179688 16.050781 0.1875 14.25 0.1875 Z M 4.25 -13.484375 C 4.25 -12.015625 4.488281 -10.601562 4.96875 -9.25 C 5.457031 -7.894531 6.144531 -6.691406 7.03125 -5.640625 C 7.914062 -4.585938 8.96875 -3.75 10.1875 -3.125 C 11.40625 -2.507812 12.757812 -2.203125 14.25 -2.203125 C 15.769531 -2.203125 17.148438 -2.53125 18.390625 -3.1875 C 19.628906 -3.851562 20.679688 -4.71875 21.546875 -5.78125 C 22.410156 -6.84375 23.078125 -8.046875 23.546875 -9.390625 C 24.015625 -10.734375 24.25 -12.097656 24.25 -13.484375 C 24.25 -14.953125 24 -16.363281 23.5 -17.71875 C 23.007812 -19.082031 22.320312 -20.28125 21.4375 -21.3125 C 20.550781 -22.351562 19.5 -23.179688 18.28125 -23.796875 C 17.0625 -24.421875 15.71875 -24.734375 14.25 -24.734375 C 12.726562 -24.734375 11.347656 -24.410156 10.109375 -23.765625 C 8.867188 -23.117188 7.816406 -22.265625 6.953125 -21.203125 C 6.085938 -20.140625 5.421875 -18.9375 4.953125 -17.59375 C 4.484375 -16.25 4.25 -14.878906 4.25 -13.484375 Z M 4.25 -13.484375 "/></g></g></g><g fill="#ebebeb" fill-opacity="1"><g transform="translate(155.9265, 290.230937)"><g><path d="M 22.53125 -24.625 L 12.921875 -24.625 L 12.921875 0 L 10.265625 0 L 10.265625 -24.625 L 0.640625 -24.625 L 0.640625 -26.984375 L 22.53125 -26.984375 Z M 22.53125 -24.625 "/></g></g></g><g fill="#ebebeb" fill-opacity="1"><g transform="translate(179.101768, 290.230937)"><g><path d="M 3.375 0 L 3.375 -26.984375 L 6.046875 -26.984375 L 6.046875 0 Z M 3.375 0 "/></g></g></g><g fill="#ebebeb" fill-opacity="1"><g transform="translate(188.523848, 290.230937)"><g><path d="M 1.59375 -13.6875 C 1.59375 -15.300781 1.878906 -16.910156 2.453125 -18.515625 C 3.023438 -20.128906 3.851562 -21.566406 4.9375 -22.828125 C 6.03125 -24.097656 7.375 -25.128906 8.96875 -25.921875 C 10.5625 -26.722656 12.375 -27.125 14.40625 -27.125 C 16.8125 -27.125 18.867188 -26.578125 20.578125 -25.484375 C 22.285156 -24.398438 23.546875 -22.984375 24.359375 -21.234375 L 22.265625 -19.953125 C 21.835938 -20.835938 21.3125 -21.582031 20.6875 -22.1875 C 20.070312 -22.800781 19.40625 -23.296875 18.6875 -23.671875 C 17.976562 -24.054688 17.242188 -24.328125 16.484375 -24.484375 C 15.734375 -24.648438 14.988281 -24.734375 14.25 -24.734375 C 12.625 -24.734375 11.191406 -24.40625 9.953125 -23.75 C 8.710938 -23.09375 7.664062 -22.226562 6.8125 -21.15625 C 5.96875 -20.09375 5.328125 -18.894531 4.890625 -17.5625 C 4.460938 -16.238281 4.25 -14.894531 4.25 -13.53125 C 4.25 -12.03125 4.507812 -10.597656 5.03125 -9.234375 C 5.550781 -7.867188 6.257812 -6.660156 7.15625 -5.609375 C 8.0625 -4.554688 9.128906 -3.71875 10.359375 -3.09375 C 11.585938 -2.476562 12.921875 -2.171875 14.359375 -2.171875 C 15.117188 -2.171875 15.894531 -2.265625 16.6875 -2.453125 C 17.488281 -2.640625 18.265625 -2.941406 19.015625 -3.359375 C 19.765625 -3.773438 20.457031 -4.296875 21.09375 -4.921875 C 21.726562 -5.546875 22.257812 -6.300781 22.6875 -7.1875 L 24.890625 -6.046875 C 24.460938 -5.023438 23.851562 -4.128906 23.0625 -3.359375 C 22.28125 -2.585938 21.40625 -1.9375 20.4375 -1.40625 C 19.476562 -0.875 18.457031 -0.46875 17.375 -0.1875 C 16.300781 0.09375 15.25 0.234375 14.21875 0.234375 C 12.363281 0.234375 10.660156 -0.171875 9.109375 -0.984375 C 7.566406 -1.796875 6.238281 -2.851562 5.125 -4.15625 C 4.007812 -5.46875 3.140625 -6.953125 2.515625 -8.609375 C 1.898438 -10.265625 1.59375 -11.957031 1.59375 -13.6875 Z M 1.59375 -13.6875 "/></g></g></g><g fill="#ebebeb" fill-opacity="1"><g transform="translate(214.586518, 290.230937)"><g/></g></g><g fill="#ebebeb" fill-opacity="1"><g transform="translate(224.274537, 290.230937)"><g><path d="M 1.296875 -3.375 C 1.847656 -3 2.5625 -2.671875 3.4375 -2.390625 C 4.3125 -2.109375 5.296875 -1.96875 6.390625 -1.96875 C 7.753906 -1.96875 8.847656 -2.210938 9.671875 -2.703125 C 10.492188 -3.203125 11.117188 -3.929688 11.546875 -4.890625 C 11.984375 -5.859375 12.265625 -7.046875 12.390625 -8.453125 C 12.515625 -9.859375 12.578125 -11.460938 12.578125 -13.265625 L 12.578125 -26.984375 L 15.234375 -26.984375 L 15.234375 -13.265625 C 15.234375 -11.210938 15.140625 -9.34375 14.953125 -7.65625 C 14.765625 -5.96875 14.363281 -4.53125 13.75 -3.34375 C 13.144531 -2.15625 12.257812 -1.226562 11.09375 -0.5625 C 9.925781 0.09375 8.359375 0.421875 6.390625 0.421875 C 4.109375 0.421875 2.15625 -0.132812 0.53125 -1.25 Z M 1.296875 -3.375 "/></g></g></g><g fill="#ebebeb" fill-opacity="1"><g transform="translate(242.548804, 290.230937)"><g><path d="M 14.25 0.1875 C 12.375 0.1875 10.65625 -0.195312 9.09375 -0.96875 C 7.539062 -1.738281 6.207031 -2.765625 5.09375 -4.046875 C 3.976562 -5.328125 3.113281 -6.789062 2.5 -8.4375 C 1.894531 -10.082031 1.59375 -11.765625 1.59375 -13.484375 C 1.59375 -15.285156 1.914062 -17.007812 2.5625 -18.65625 C 3.207031 -20.300781 4.097656 -21.753906 5.234375 -23.015625 C 6.378906 -24.285156 7.722656 -25.296875 9.265625 -26.046875 C 10.816406 -26.796875 12.488281 -27.171875 14.28125 -27.171875 C 16.15625 -27.171875 17.875 -26.769531 19.4375 -25.96875 C 21 -25.175781 22.328125 -24.132812 23.421875 -22.84375 C 24.523438 -21.550781 25.378906 -20.085938 25.984375 -18.453125 C 26.597656 -16.816406 26.90625 -15.148438 26.90625 -13.453125 C 26.90625 -11.648438 26.582031 -9.925781 25.9375 -8.28125 C 25.289062 -6.632812 24.398438 -5.179688 23.265625 -3.921875 C 22.140625 -2.671875 20.804688 -1.671875 19.265625 -0.921875 C 17.722656 -0.179688 16.050781 0.1875 14.25 0.1875 Z M 4.25 -13.484375 C 4.25 -12.015625 4.488281 -10.601562 4.96875 -9.25 C 5.457031 -7.894531 6.144531 -6.691406 7.03125 -5.640625 C 7.914062 -4.585938 8.96875 -3.75 10.1875 -3.125 C 11.40625 -2.507812 12.757812 -2.203125 14.25 -2.203125 C 15.769531 -2.203125 17.148438 -2.53125 18.390625 -3.1875 C 19.628906 -3.851562 20.679688 -4.71875 21.546875 -5.78125 C 22.410156 -6.84375 23.078125 -8.046875 23.546875 -9.390625 C 24.015625 -10.734375 24.25 -12.097656 24.25 -13.484375 C 24.25 -14.953125 24 -16.363281 23.5 -17.71875 C 23.007812 -19.082031 22.320312 -20.28125 21.4375 -21.3125 C 20.550781 -22.351562 19.5 -23.179688 18.28125 -23.796875 C 17.0625 -24.421875 15.71875 -24.734375 14.25 -24.734375 C 12.726562 -24.734375 11.347656 -24.410156 10.109375 -23.765625 C 8.867188 -23.117188 7.816406 -22.265625 6.953125 -21.203125 C 6.085938 -20.140625 5.421875 -18.9375 4.953125 -17.59375 C 4.484375 -16.25 4.25 -14.878906 4.25 -13.484375 Z M 4.25 -13.484375 "/></g></g></g><g fill="#ebebeb" fill-opacity="1"><g transform="translate(271.080972, 290.230937)"><g><path d="M 23.671875 -6.953125 C 23.671875 -5.941406 23.46875 -5.007812 23.0625 -4.15625 C 22.65625 -3.3125 22.109375 -2.578125 21.421875 -1.953125 C 20.742188 -1.335938 19.945312 -0.859375 19.03125 -0.515625 C 18.125 -0.171875 17.148438 0 16.109375 0 L 3.375 0 L 3.375 -26.984375 L 16.375 -26.984375 C 17.3125 -26.984375 18.160156 -26.78125 18.921875 -26.375 C 19.679688 -25.96875 20.328125 -25.441406 20.859375 -24.796875 C 21.390625 -24.148438 21.800781 -23.414062 22.09375 -22.59375 C 22.382812 -21.769531 22.53125 -20.941406 22.53125 -20.109375 C 22.53125 -18.734375 22.1875 -17.484375 21.5 -16.359375 C 20.820312 -15.234375 19.875 -14.390625 18.65625 -13.828125 C 20.195312 -13.367188 21.414062 -12.519531 22.3125 -11.28125 C 23.21875 -10.039062 23.671875 -8.597656 23.671875 -6.953125 Z M 21.015625 -7.40625 C 21.015625 -8.0625 20.898438 -8.703125 20.671875 -9.328125 C 20.441406 -9.953125 20.117188 -10.5 19.703125 -10.96875 C 19.285156 -11.4375 18.789062 -11.816406 18.21875 -12.109375 C 17.644531 -12.398438 17.03125 -12.546875 16.375 -12.546875 L 6.046875 -12.546875 L 6.046875 -2.3125 L 16.109375 -2.3125 C 16.796875 -2.3125 17.4375 -2.453125 18.03125 -2.734375 C 18.625 -3.015625 19.140625 -3.390625 19.578125 -3.859375 C 20.023438 -4.328125 20.375 -4.867188 20.625 -5.484375 C 20.882812 -6.109375 21.015625 -6.75 21.015625 -7.40625 Z M 6.046875 -24.65625 L 6.046875 -14.703125 L 15.3125 -14.703125 C 15.96875 -14.703125 16.582031 -14.84375 17.15625 -15.125 C 17.726562 -15.40625 18.21875 -15.769531 18.625 -16.21875 C 19.03125 -16.675781 19.34375 -17.203125 19.5625 -17.796875 C 19.789062 -18.398438 19.90625 -19.03125 19.90625 -19.6875 C 19.90625 -20.363281 19.796875 -21.003906 19.578125 -21.609375 C 19.367188 -22.222656 19.066406 -22.75 18.671875 -23.1875 C 18.285156 -23.632812 17.820312 -23.988281 17.28125 -24.25 C 16.75 -24.519531 16.171875 -24.65625 15.546875 -24.65625 Z M 6.046875 -24.65625 "/></g></g></g><g fill="#ebebeb" fill-opacity="1"><g transform="translate(296.383788, 290.230937)"><g><path d="M 19.15625 -21.921875 C 18.394531 -22.785156 17.378906 -23.484375 16.109375 -24.015625 C 14.847656 -24.546875 13.40625 -24.8125 11.78125 -24.8125 C 9.394531 -24.8125 7.65625 -24.359375 6.5625 -23.453125 C 5.476562 -22.554688 4.9375 -21.335938 4.9375 -19.796875 C 4.9375 -18.984375 5.082031 -18.316406 5.375 -17.796875 C 5.664062 -17.285156 6.113281 -16.835938 6.71875 -16.453125 C 7.332031 -16.078125 8.113281 -15.75 9.0625 -15.46875 C 10.007812 -15.1875 11.128906 -14.90625 12.421875 -14.625 C 13.867188 -14.320312 15.164062 -13.976562 16.3125 -13.59375 C 17.46875 -13.21875 18.453125 -12.742188 19.265625 -12.171875 C 20.078125 -11.609375 20.695312 -10.921875 21.125 -10.109375 C 21.5625 -9.296875 21.78125 -8.28125 21.78125 -7.0625 C 21.78125 -5.820312 21.535156 -4.742188 21.046875 -3.828125 C 20.566406 -2.921875 19.894531 -2.160156 19.03125 -1.546875 C 18.175781 -0.941406 17.148438 -0.492188 15.953125 -0.203125 C 14.765625 0.0859375 13.460938 0.234375 12.046875 0.234375 C 7.867188 0.234375 4.257812 -1.070312 1.21875 -3.6875 L 2.546875 -5.859375 C 3.023438 -5.347656 3.597656 -4.863281 4.265625 -4.40625 C 4.941406 -3.945312 5.691406 -3.546875 6.515625 -3.203125 C 7.335938 -2.867188 8.21875 -2.601562 9.15625 -2.40625 C 10.09375 -2.21875 11.082031 -2.125 12.125 -2.125 C 14.28125 -2.125 15.957031 -2.507812 17.15625 -3.28125 C 18.363281 -4.0625 18.96875 -5.234375 18.96875 -6.796875 C 18.96875 -7.640625 18.796875 -8.34375 18.453125 -8.90625 C 18.109375 -9.476562 17.59375 -9.972656 16.90625 -10.390625 C 16.226562 -10.804688 15.378906 -11.164062 14.359375 -11.46875 C 13.347656 -11.78125 12.171875 -12.085938 10.828125 -12.390625 C 9.410156 -12.710938 8.171875 -13.050781 7.109375 -13.40625 C 6.046875 -13.769531 5.144531 -14.21875 4.40625 -14.75 C 3.675781 -15.28125 3.125 -15.914062 2.75 -16.65625 C 2.382812 -17.40625 2.203125 -18.328125 2.203125 -19.421875 C 2.203125 -20.660156 2.4375 -21.765625 2.90625 -22.734375 C 3.375 -23.710938 4.035156 -24.523438 4.890625 -25.171875 C 5.753906 -25.816406 6.769531 -26.3125 7.9375 -26.65625 C 9.101562 -27 10.394531 -27.171875 11.8125 -27.171875 C 13.613281 -27.171875 15.21875 -26.894531 16.625 -26.34375 C 18.03125 -25.800781 19.300781 -25.035156 20.4375 -24.046875 Z M 19.15625 -21.921875 "/></g></g></g><g clip-path="url(#id3)"><path fill="#ffffff" d="M 125.574219 92.316406 C 139.878906 94.511719 139.878906 94.511719 142.074219 108.816406 C 144.261719 94.511719 144.261719 94.511719 158.570312 92.316406 C 144.261719 90.128906 144.261719 90.128906 142.074219 75.820312 C 139.878906 90.128906 139.878906 90.128906 125.574219 92.316406 " fill-opacity="1" fill-rule="nonzero"/></g><g clip-path="url(#id4)"><path fill="#ebebeb" d="M 202.539062 77.953125 C 214.570312 79.796875 214.570312 79.796875 216.414062 91.828125 C 218.253906 79.796875 218.253906 79.796875 230.285156 77.953125 C 218.253906 76.113281 218.253906 76.113281 216.414062 64.082031 C 214.570312 76.113281 214.570312 76.113281 202.539062 77.953125 " fill-opacity="1" fill-rule="nonzero"/></g><g clip-path="url(#id5)"><path fill="#38b6ff" d="M 98.773438 147.410156 C 106.25 148.554688 106.25 148.554688 107.398438 156.035156 C 108.542969 148.554688 108.542969 148.554688 116.023438 147.410156 C 108.542969 146.265625 108.542969 146.265625 107.398438 138.785156 C 106.25 146.265625 106.25 146.265625 98.773438 147.410156 " fill-opacity="1" fill-rule="nonzero"/></g><path fill="#7ed957" d="M 215.585938 133.242188 L 219.558594 129.269531 L 227.621094 137.332031 L 223.648438 141.304688 Z M 215.585938 133.242188 " fill-opacity="1" fill-rule="nonzero"/><g clip-path="url(#id6)"><path fill="#7ed957" d="M 240.355469 145.5625 C 242.109375 147.316406 242.109375 150.164062 240.355469 151.921875 L 238.238281 154.039062 C 236.480469 155.796875 233.632812 155.796875 231.878906 154.039062 L 220.523438 142.679688 C 218.765625 140.921875 218.765625 138.078125 220.519531 136.320312 L 222.640625 134.203125 C 224.394531 132.449219 227.242188 132.449219 229 134.203125 Z M 240.355469 145.5625 " fill-opacity="1" fill-rule="nonzero"/></g><g clip-path="url(#id7)"><path fill="#7ed957" d="M 202.625 92.15625 C 189.285156 92.15625 178.472656 102.96875 178.472656 116.308594 C 178.472656 129.648438 189.285156 140.460938 202.625 140.460938 C 215.964844 140.460938 226.777344 129.648438 226.777344 116.308594 C 226.777344 102.96875 215.964844 92.15625 202.625 92.15625 Z M 202.625 135.992188 C 191.75 135.992188 182.9375 127.183594 182.9375 116.308594 C 182.9375 105.433594 191.75 96.625 202.625 96.625 C 213.5 96.625 222.3125 105.433594 222.3125 116.308594 C 222.3125 127.183594 213.5 135.992188 202.625 135.992188 Z M 202.625 135.992188 " fill-opacity="1" fill-rule="nonzero"/></g><path fill="#7ed957" d="M 207.578125 128.261719 C 197.945312 128.261719 190.128906 120.449219 190.128906 110.8125 C 190.128906 110.558594 190.15625 110.308594 190.167969 110.050781 C 188.894531 112.109375 188.148438 114.527344 188.148438 117.121094 C 188.148438 124.574219 194.191406 130.609375 201.636719 130.609375 C 204.515625 130.609375 207.175781 129.707031 209.367188 128.171875 C 208.777344 128.234375 208.179688 128.261719 207.578125 128.261719 Z M 207.578125 128.261719 " fill-opacity="1" fill-rule="nonzero"/><g fill="#ebebeb" fill-opacity="1"><g transform="translate(152.960416, 324.250241)"><g><path d="M 2.359375 0 L 2.359375 -18.8125 L 14.703125 -18.8125 L 14.703125 -17.171875 L 4.21875 -17.171875 L 4.21875 -10.25 L 13.0625 -10.25 L 13.0625 -8.71875 L 4.21875 -8.71875 L 4.21875 0 Z M 2.359375 0 "/></g></g></g><g fill="#ebebeb" fill-opacity="1"><g transform="translate(168.565035, 324.250241)"><g><path d="M 2.359375 0 L 2.359375 -18.8125 L 10.3125 -18.8125 C 11.125 -18.8125 11.867188 -18.640625 12.546875 -18.296875 C 13.222656 -17.953125 13.804688 -17.5 14.296875 -16.9375 C 14.796875 -16.382812 15.179688 -15.753906 15.453125 -15.046875 C 15.734375 -14.335938 15.875 -13.625 15.875 -12.90625 C 15.875 -12.21875 15.769531 -11.554688 15.5625 -10.921875 C 15.363281 -10.296875 15.082031 -9.734375 14.71875 -9.234375 C 14.351562 -8.734375 13.914062 -8.3125 13.40625 -7.96875 C 12.894531 -7.625 12.320312 -7.390625 11.6875 -7.265625 L 16.296875 0 L 14.203125 0 L 9.78125 -6.9375 L 4.21875 -6.9375 L 4.21875 0 Z M 4.21875 -8.59375 L 10.359375 -8.59375 C 10.910156 -8.59375 11.410156 -8.707031 11.859375 -8.9375 C 12.304688 -9.175781 12.6875 -9.5 13 -9.90625 C 13.320312 -10.3125 13.570312 -10.769531 13.75 -11.28125 C 13.925781 -11.800781 14.015625 -12.34375 14.015625 -12.90625 C 14.015625 -13.46875 13.910156 -14.007812 13.703125 -14.53125 C 13.503906 -15.050781 13.234375 -15.503906 12.890625 -15.890625 C 12.546875 -16.285156 12.140625 -16.597656 11.671875 -16.828125 C 11.203125 -17.054688 10.710938 -17.171875 10.203125 -17.171875 L 4.21875 -17.171875 Z M 4.21875 -8.59375 "/></g></g></g><g fill="#ebebeb" fill-opacity="1"><g transform="translate(185.865232, 324.250241)"><g><path d="M 9.9375 0.125 C 8.625 0.125 7.425781 -0.140625 6.34375 -0.671875 C 5.257812 -1.210938 4.328125 -1.925781 3.546875 -2.8125 C 2.773438 -3.707031 2.175781 -4.726562 1.75 -5.875 C 1.320312 -7.03125 1.109375 -8.207031 1.109375 -9.40625 C 1.109375 -10.65625 1.332031 -11.851562 1.78125 -13 C 2.238281 -14.15625 2.863281 -15.175781 3.65625 -16.0625 C 4.445312 -16.945312 5.378906 -17.648438 6.453125 -18.171875 C 7.535156 -18.691406 8.707031 -18.953125 9.96875 -18.953125 C 11.269531 -18.953125 12.460938 -18.671875 13.546875 -18.109375 C 14.640625 -17.554688 15.566406 -16.828125 16.328125 -15.921875 C 17.097656 -15.023438 17.695312 -14.003906 18.125 -12.859375 C 18.550781 -11.722656 18.765625 -10.5625 18.765625 -9.375 C 18.765625 -8.125 18.535156 -6.921875 18.078125 -5.765625 C 17.628906 -4.617188 17.007812 -3.609375 16.21875 -2.734375 C 15.4375 -1.867188 14.503906 -1.175781 13.421875 -0.65625 C 12.347656 -0.132812 11.1875 0.125 9.9375 0.125 Z M 2.96875 -9.40625 C 2.96875 -8.382812 3.132812 -7.398438 3.46875 -6.453125 C 3.800781 -5.503906 4.273438 -4.660156 4.890625 -3.921875 C 5.515625 -3.191406 6.25 -2.609375 7.09375 -2.171875 C 7.945312 -1.742188 8.894531 -1.53125 9.9375 -1.53125 C 11 -1.53125 11.960938 -1.757812 12.828125 -2.21875 C 13.691406 -2.6875 14.421875 -3.289062 15.015625 -4.03125 C 15.617188 -4.769531 16.082031 -5.609375 16.40625 -6.546875 C 16.738281 -7.484375 16.90625 -8.4375 16.90625 -9.40625 C 16.90625 -10.425781 16.734375 -11.410156 16.390625 -12.359375 C 16.046875 -13.304688 15.5625 -14.140625 14.9375 -14.859375 C 14.320312 -15.585938 13.585938 -16.164062 12.734375 -16.59375 C 11.890625 -17.03125 10.957031 -17.25 9.9375 -17.25 C 8.875 -17.25 7.910156 -17.023438 7.046875 -16.578125 C 6.179688 -16.128906 5.445312 -15.53125 4.84375 -14.78125 C 4.25 -14.039062 3.785156 -13.203125 3.453125 -12.265625 C 3.128906 -11.328125 2.96875 -10.375 2.96875 -9.40625 Z M 2.96875 -9.40625 "/></g></g></g><g fill="#ebebeb" fill-opacity="1"><g transform="translate(205.761778, 324.250241)"><g><path d="M 19.03125 0 L 19.03125 -15.453125 L 12.15625 -3.5 L 11.078125 -3.5 L 4.21875 -15.453125 L 4.21875 0 L 2.359375 0 L 2.359375 -18.8125 L 4.265625 -18.8125 L 11.609375 -5.9375 L 19 -18.8125 L 20.875 -18.8125 L 20.875 0 Z M 19.03125 0 "/></g></g></g><g fill="#ebebeb" fill-opacity="1"><g transform="translate(228.996498, 324.250241)"><g/></g></g><g fill="#ebebeb" fill-opacity="1"><g transform="translate(235.752315, 324.250241)"><g><path d="M 15.953125 -2.75 C 14.203125 -0.832031 12.1875 0.125 9.90625 0.125 C 8.632812 0.125 7.460938 -0.144531 6.390625 -0.6875 C 5.328125 -1.238281 4.398438 -1.960938 3.609375 -2.859375 C 2.828125 -3.765625 2.210938 -4.785156 1.765625 -5.921875 C 1.328125 -7.054688 1.109375 -8.226562 1.109375 -9.4375 C 1.109375 -10.6875 1.320312 -11.882812 1.75 -13.03125 C 2.1875 -14.1875 2.796875 -15.203125 3.578125 -16.078125 C 4.359375 -16.953125 5.273438 -17.648438 6.328125 -18.171875 C 7.390625 -18.691406 8.550781 -18.953125 9.8125 -18.953125 C 10.726562 -18.953125 11.566406 -18.847656 12.328125 -18.640625 C 13.085938 -18.441406 13.757812 -18.160156 14.34375 -17.796875 C 14.9375 -17.429688 15.445312 -16.992188 15.875 -16.484375 C 16.3125 -15.984375 16.679688 -15.4375 16.984375 -14.84375 L 15.5625 -13.890625 C 14.9375 -15.054688 14.128906 -15.910156 13.140625 -16.453125 C 12.148438 -17.003906 11.03125 -17.28125 9.78125 -17.28125 C 8.738281 -17.28125 7.796875 -17.054688 6.953125 -16.609375 C 6.117188 -16.171875 5.40625 -15.582031 4.8125 -14.84375 C 4.21875 -14.113281 3.757812 -13.273438 3.4375 -12.328125 C 3.125 -11.390625 2.96875 -10.414062 2.96875 -9.40625 C 2.96875 -8.34375 3.144531 -7.332031 3.5 -6.375 C 3.863281 -5.425781 4.363281 -4.59375 5 -3.875 C 5.644531 -3.164062 6.394531 -2.597656 7.25 -2.171875 C 8.101562 -1.742188 9.035156 -1.53125 10.046875 -1.53125 C 11.117188 -1.53125 12.144531 -1.78125 13.125 -2.28125 C 14.101562 -2.789062 15.046875 -3.59375 15.953125 -4.6875 L 15.953125 -7.8125 L 11.765625 -7.8125 L 11.765625 -9.25 L 17.515625 -9.25 L 17.515625 0 L 15.953125 0 Z M 15.953125 -2.75 "/></g></g></g><g fill="#ebebeb" fill-opacity="1"><g transform="translate(254.721595, 324.250241)"><g><path d="M 10.765625 -1.640625 L 10.765625 0 L 1.78125 0 L 1.78125 -1.640625 L 5.53125 -1.640625 L 5.53125 -12.984375 C 5.394531 -12.773438 5.15625 -12.546875 4.8125 -12.296875 C 4.46875 -12.046875 4.085938 -11.8125 3.671875 -11.59375 C 3.253906 -11.382812 2.820312 -11.207031 2.375 -11.0625 C 1.9375 -10.925781 1.550781 -10.859375 1.21875 -10.859375 L 1.21875 -12.609375 C 1.625 -12.609375 2.066406 -12.722656 2.546875 -12.953125 C 3.035156 -13.179688 3.492188 -13.445312 3.921875 -13.75 C 4.359375 -14.050781 4.726562 -14.332031 5.03125 -14.59375 C 5.332031 -14.863281 5.5 -15.039062 5.53125 -15.125 L 7.390625 -15.125 L 7.390625 -1.640625 Z M 10.765625 -1.640625 "/></g></g></g><g fill="#ebebeb" fill-opacity="1"><g transform="translate(266.060774, 324.250241)"><g><path d="M 9.09375 -6.25 C 10.257812 -6.0625 11.191406 -5.53125 11.890625 -4.65625 C 12.585938 -3.789062 12.9375 -2.722656 12.9375 -1.453125 C 12.9375 -0.660156 12.789062 0.0625 12.5 0.71875 C 12.207031 1.382812 11.789062 1.953125 11.25 2.421875 C 10.707031 2.890625 10.0625 3.25 9.3125 3.5 C 8.5625 3.757812 7.726562 3.890625 6.8125 3.890625 C 5.46875 3.890625 4.289062 3.617188 3.28125 3.078125 C 2.28125 2.546875 1.519531 1.800781 1 0.84375 L 2.25 -0.296875 C 2.625 0.484375 3.191406 1.101562 3.953125 1.5625 C 4.710938 2.019531 5.664062 2.25 6.8125 2.25 C 8.132812 2.25 9.175781 1.925781 9.9375 1.28125 C 10.695312 0.632812 11.078125 -0.285156 11.078125 -1.484375 C 11.078125 -2.703125 10.675781 -3.664062 9.875 -4.375 C 9.082031 -5.082031 7.9375 -5.4375 6.4375 -5.4375 L 5.78125 -5.4375 L 5.78125 -6.96875 L 6.5 -6.96875 C 7.851562 -6.96875 8.890625 -7.28125 9.609375 -7.90625 C 10.335938 -8.53125 10.703125 -9.347656 10.703125 -10.359375 C 10.703125 -10.890625 10.601562 -11.359375 10.40625 -11.765625 C 10.21875 -12.171875 9.953125 -12.507812 9.609375 -12.78125 C 9.265625 -13.0625 8.859375 -13.269531 8.390625 -13.40625 C 7.921875 -13.550781 7.410156 -13.625 6.859375 -13.625 C 5.859375 -13.625 4.972656 -13.394531 4.203125 -12.9375 C 3.429688 -12.488281 2.851562 -11.867188 2.46875 -11.078125 L 1.296875 -12.1875 C 1.503906 -12.644531 1.800781 -13.0625 2.1875 -13.4375 C 2.582031 -13.820312 3.023438 -14.144531 3.515625 -14.40625 C 4.015625 -14.675781 4.5625 -14.882812 5.15625 -15.03125 C 5.757812 -15.1875 6.378906 -15.265625 7.015625 -15.265625 C 7.828125 -15.265625 8.570312 -15.148438 9.25 -14.921875 C 9.9375 -14.691406 10.523438 -14.367188 11.015625 -13.953125 C 11.515625 -13.535156 11.898438 -13.035156 12.171875 -12.453125 C 12.453125 -11.867188 12.59375 -11.222656 12.59375 -10.515625 C 12.59375 -9.984375 12.507812 -9.472656 12.34375 -8.984375 C 12.1875 -8.503906 11.957031 -8.070312 11.65625 -7.6875 C 11.351562 -7.3125 10.984375 -6.992188 10.546875 -6.734375 C 10.117188 -6.484375 9.632812 -6.320312 9.09375 -6.25 Z M 9.09375 -6.25 "/></g></g></g></svg>