<svg xmlns="http://www.w3.org/2000/svg" xmlns:xlink="http://www.w3.org/1999/xlink" width="500" zoomAndPan="magnify" viewBox="0 0 375 374.999991" height="500" preserveAspectRatio="xMidYMid meet" version="1.0"><defs><g/><clipPath id="id1"><path d="M 147.210938 123.691406 L 227.460938 123.691406 L 227.460938 224.941406 L 147.210938 224.941406 Z M 147.210938 123.691406 " clip-rule="nonzero"/></clipPath></defs><rect x="-37.5" width="450" fill="#ffffff" y="-37.499999" height="449.999989" fill-opacity="1"/><rect x="-37.5" width="450" fill="#000000" y="-37.499999" height="449.999989" fill-opacity="1"/><rect x="-37.5" width="450" fill="#ffffff" y="-37.499999" height="449.999989" fill-opacity="1"/><rect x="-37.5" width="450" fill="#000000" y="-37.499999" height="449.999989" fill-opacity="1"/><g clip-path="url(#id1)"><path fill="#ffffff" d="M 227.453125 224.941406 L 192.972656 224.941406 L 192.972656 200.882812 L 181.003906 200.882812 L 181.003906 224.941406 L 147.222656 224.941406 L 147.222656 178.929688 L 157.074219 178.929688 L 157.074219 215.027344 L 171.152344 215.027344 L 171.152344 190.949219 L 202.824219 190.949219 L 202.824219 215.027344 L 217.601562 215.027344 L 217.601562 156.257812 L 202.824219 156.257812 L 202.824219 178.929688 L 171.152344 178.929688 L 171.152344 156.980469 L 147.222656 156.980469 L 147.222656 123.691406 L 226.753906 123.691406 L 226.753906 133.601562 L 157.074219 133.601562 L 157.074219 147.066406 L 181.003906 147.066406 L 181.003906 168.996094 L 192.972656 168.996094 L 192.972656 146.34375 L 227.453125 146.34375 Z M 227.453125 224.941406 " fill-opacity="1" fill-rule="nonzero"/></g><g fill="#ffffff" fill-opacity="1"><g transform="translate(64.335938, 301.963399)"><g><path d="M 45.515625 -21.703125 C 45.515625 -18.554688 44.992188 -15.628906 43.953125 -12.921875 C 42.921875 -10.210938 41.441406 -7.847656 39.515625 -5.828125 C 37.597656 -3.804688 35.347656 -2.222656 32.765625 -1.078125 C 30.179688 0.0546875 27.335938 0.625 24.234375 0.625 C 21.140625 0.625 18.289062 0.0546875 15.6875 -1.078125 C 13.082031 -2.222656 10.828125 -3.804688 8.921875 -5.828125 C 7.023438 -7.847656 5.554688 -10.210938 4.515625 -12.921875 C 3.484375 -15.628906 2.96875 -18.554688 2.96875 -21.703125 C 2.96875 -24.835938 3.484375 -27.757812 4.515625 -30.46875 C 5.554688 -33.175781 7.023438 -35.539062 8.921875 -37.5625 C 10.828125 -39.59375 13.082031 -41.175781 15.6875 -42.3125 C 18.289062 -43.445312 21.140625 -44.015625 24.234375 -44.015625 C 27.335938 -44.015625 30.179688 -43.445312 32.765625 -42.3125 C 35.347656 -41.175781 37.597656 -39.59375 39.515625 -37.5625 C 41.441406 -35.539062 42.921875 -33.175781 43.953125 -30.46875 C 44.992188 -27.757812 45.515625 -24.835938 45.515625 -21.703125 Z M 38.6875 -21.703125 C 38.6875 -24.710938 38.066406 -27.40625 36.828125 -29.78125 C 35.585938 -32.164062 33.878906 -34.050781 31.703125 -35.4375 C 29.535156 -36.820312 27.046875 -37.515625 24.234375 -37.515625 C 21.390625 -37.515625 18.878906 -36.820312 16.703125 -35.4375 C 14.535156 -34.050781 12.84375 -32.164062 11.625 -29.78125 C 10.40625 -27.40625 9.796875 -24.710938 9.796875 -21.703125 C 9.796875 -18.679688 10.40625 -15.984375 11.625 -13.609375 C 12.84375 -11.234375 14.535156 -9.351562 16.703125 -7.96875 C 18.878906 -6.582031 21.390625 -5.890625 24.234375 -5.890625 C 27.046875 -5.890625 29.535156 -6.582031 31.703125 -7.96875 C 33.878906 -9.351562 35.585938 -11.242188 36.828125 -13.640625 C 38.066406 -16.035156 38.6875 -18.722656 38.6875 -21.703125 Z M 38.6875 -21.703125 "/></g></g></g><g fill="#ffffff" fill-opacity="1"><g transform="translate(112.81376, 301.963399)"><g><path d="M 12.640625 -43.40625 L 26.84375 -20.28125 L 41.296875 -43.40625 L 47.484375 -43.40625 L 47.484375 0 L 40.796875 0 L 40.796875 -17.796875 C 40.796875 -20.398438 40.847656 -22.867188 40.953125 -25.203125 C 41.054688 -27.535156 41.234375 -29.859375 41.484375 -32.171875 L 28.703125 -12.46875 L 24.609375 -12.46875 L 12.15625 -32.109375 C 12.40625 -29.796875 12.566406 -27.484375 12.640625 -25.171875 C 12.722656 -22.859375 12.765625 -20.398438 12.765625 -17.796875 L 12.765625 0 L 6.078125 0 L 6.078125 -43.40625 Z M 12.640625 -43.40625 "/></g></g></g><g fill="#ffffff" fill-opacity="1"><g transform="translate(166.374944, 301.963399)"><g><path d="M 45.515625 -21.703125 C 45.515625 -18.554688 44.992188 -15.628906 43.953125 -12.921875 C 42.921875 -10.210938 41.441406 -7.847656 39.515625 -5.828125 C 37.597656 -3.804688 35.347656 -2.222656 32.765625 -1.078125 C 30.179688 0.0546875 27.335938 0.625 24.234375 0.625 C 21.140625 0.625 18.289062 0.0546875 15.6875 -1.078125 C 13.082031 -2.222656 10.828125 -3.804688 8.921875 -5.828125 C 7.023438 -7.847656 5.554688 -10.210938 4.515625 -12.921875 C 3.484375 -15.628906 2.96875 -18.554688 2.96875 -21.703125 C 2.96875 -24.835938 3.484375 -27.757812 4.515625 -30.46875 C 5.554688 -33.175781 7.023438 -35.539062 8.921875 -37.5625 C 10.828125 -39.59375 13.082031 -41.175781 15.6875 -42.3125 C 18.289062 -43.445312 21.140625 -44.015625 24.234375 -44.015625 C 27.335938 -44.015625 30.179688 -43.445312 32.765625 -42.3125 C 35.347656 -41.175781 37.597656 -39.59375 39.515625 -37.5625 C 41.441406 -35.539062 42.921875 -33.175781 43.953125 -30.46875 C 44.992188 -27.757812 45.515625 -24.835938 45.515625 -21.703125 Z M 38.6875 -21.703125 C 38.6875 -24.710938 38.066406 -27.40625 36.828125 -29.78125 C 35.585938 -32.164062 33.878906 -34.050781 31.703125 -35.4375 C 29.535156 -36.820312 27.046875 -37.515625 24.234375 -37.515625 C 21.390625 -37.515625 18.878906 -36.820312 16.703125 -35.4375 C 14.535156 -34.050781 12.84375 -32.164062 11.625 -29.78125 C 10.40625 -27.40625 9.796875 -24.710938 9.796875 -21.703125 C 9.796875 -18.679688 10.40625 -15.984375 11.625 -13.609375 C 12.84375 -11.234375 14.535156 -9.351562 16.703125 -7.96875 C 18.878906 -6.582031 21.390625 -5.890625 24.234375 -5.890625 C 27.046875 -5.890625 29.535156 -6.582031 31.703125 -7.96875 C 33.878906 -9.351562 35.585938 -11.242188 36.828125 -13.640625 C 38.066406 -16.035156 38.6875 -18.722656 38.6875 -21.703125 Z M 38.6875 -21.703125 "/></g></g></g><g fill="#ffffff" fill-opacity="1"><g transform="translate(214.852766, 301.963399)"><g><path d="M 14.328125 0 L 14.328125 -36.953125 L 2.171875 -36.953125 L 2.171875 -43.40625 L 33.546875 -43.40625 L 33.546875 -36.953125 L 21.015625 -36.953125 L 21.015625 0 Z M 14.328125 0 "/></g></g></g><g fill="#ffffff" fill-opacity="1"><g transform="translate(250.560218, 301.963399)"><g><path d="M 25.171875 0 L 4.46875 0 L 4.46875 -6.203125 L 11.46875 -6.203125 L 11.46875 -37.203125 L 4.46875 -37.203125 L 4.46875 -43.40625 L 25.171875 -43.40625 L 25.171875 -37.203125 L 18.171875 -37.203125 L 18.171875 -6.203125 L 25.171875 -6.203125 Z M 25.171875 0 "/></g></g></g><g fill="#ffffff" fill-opacity="1"><g transform="translate(280.192461, 301.963399)"><g><path d="M 39.0625 -5.328125 C 38.195312 -4.335938 36.988281 -3.382812 35.4375 -2.46875 C 33.882812 -1.5625 32.101562 -0.816406 30.09375 -0.234375 C 28.09375 0.335938 25.957031 0.625 23.6875 0.625 C 19.800781 0.625 16.296875 -0.289062 13.171875 -2.125 C 10.054688 -3.96875 7.578125 -6.5625 5.734375 -9.90625 C 3.890625 -13.257812 2.96875 -17.191406 2.96875 -21.703125 C 2.96875 -24.878906 3.523438 -27.8125 4.640625 -30.5 C 5.765625 -33.1875 7.316406 -35.519531 9.296875 -37.5 C 11.285156 -39.488281 13.5625 -41.03125 16.125 -42.125 C 18.6875 -43.21875 21.390625 -43.765625 24.234375 -43.765625 C 26.597656 -43.765625 28.800781 -43.40625 30.84375 -42.6875 C 32.882812 -41.96875 34.679688 -41.035156 36.234375 -39.890625 C 37.785156 -38.753906 38.992188 -37.546875 39.859375 -36.265625 L 35.40625 -31.625 C 33.875 -33.1875 32.175781 -34.484375 30.3125 -35.515625 C 28.457031 -36.554688 26.429688 -37.078125 24.234375 -37.078125 C 21.753906 -37.078125 19.410156 -36.457031 17.203125 -35.21875 C 14.992188 -33.976562 13.207031 -32.207031 11.84375 -29.90625 C 10.476562 -27.613281 9.796875 -24.878906 9.796875 -21.703125 C 9.796875 -18.222656 10.488281 -15.328125 11.875 -13.015625 C 13.257812 -10.703125 15.097656 -8.976562 17.390625 -7.84375 C 19.679688 -6.707031 22.148438 -6.140625 24.796875 -6.140625 C 27.234375 -6.140625 29.378906 -6.625 31.234375 -7.59375 C 33.097656 -8.5625 34.59375 -9.625 35.71875 -10.78125 Z M 39.0625 -5.328125 "/></g></g></g></svg>