<svg class="svg-icon" style="width: 1em; height: 1em;vertical-align: middle;fill: currentColor;overflow: hidden;" viewBox="0 0 1024 1024" version="1.1" xmlns="http://www.w3.org/2000/svg"><path d="M905.846154 649.846154h-9.846154c-37.415385 0-68.923077-31.507692-68.923077-68.923077V354.461538c0-179.2-149.661538-322.953846-330.830769-315.076923C326.892308 47.261538 196.923077 192.984615 196.923077 364.307692v218.584616c0 37.415385-31.507692 66.953846-68.923077 66.953846H118.153846c-43.323077 0-78.769231 37.415385-78.769231 80.738461v29.538462c0 13.784615 13.784615 27.569231 29.538462 27.569231h886.153846c15.753846 0 29.538462-13.784615 29.538462-29.538462V728.615385c0-43.323077-35.446154-78.769231-78.769231-78.769231zM608.492308 866.461538h-192.984616c-11.815385 0-21.661538 11.815385-19.692307 23.63077 9.846154 55.138462 59.076923 94.523077 116.184615 94.523077s106.338462-41.353846 116.184615-94.523077c1.969231-11.815385-7.876923-23.630769-19.692307-23.63077z"  /></svg>